<mxfile host="app.diagrams.net" modified="2023-10-04T23:27:47.546Z" agent="Mozilla/5.0 (X11; Linux x86_64) AppleWebKit/537.36 (KHTML, like Gecko) Chrome/117.0.0.0 Safari/537.36" etag="UkTE0a0KWVlnQ431yL0U" version="22.0.2" type="github">
  <diagram name="Page-1" id="uDGwgzd54vXaql_GKUdG">
    <mxGraphModel dx="1711" dy="1096" grid="1" gridSize="10" guides="1" tooltips="1" connect="1" arrows="1" fold="1" page="0" pageScale="1" pageWidth="850" pageHeight="1100" math="0" shadow="0">
      <root>
        <mxCell id="0" />
        <mxCell id="1" parent="0" />
        <mxCell id="JvDvLuI2Pq2bM0kV12Kc-3" style="rounded=0;orthogonalLoop=1;jettySize=auto;html=1;entryX=0;entryY=0.5;entryDx=0;entryDy=0;endArrow=none;endFill=0;" edge="1" parent="1" source="JvDvLuI2Pq2bM0kV12Kc-1" target="JvDvLuI2Pq2bM0kV12Kc-2">
          <mxGeometry relative="1" as="geometry" />
        </mxCell>
        <mxCell id="JvDvLuI2Pq2bM0kV12Kc-1" value="Vendedor" style="shape=umlActor;verticalLabelPosition=bottom;verticalAlign=top;html=1;strokeWidth=1;strokeColor=#000000;" vertex="1" parent="1">
          <mxGeometry x="-40" y="-50" width="30" height="60" as="geometry" />
        </mxCell>
        <mxCell id="JvDvLuI2Pq2bM0kV12Kc-21" value="&amp;lt;&amp;lt; include &amp;gt;&amp;gt;" style="rounded=0;orthogonalLoop=1;jettySize=auto;html=1;entryX=0;entryY=0.5;entryDx=0;entryDy=0;dashed=1;endArrow=open;endFill=0;" edge="1" parent="1" source="JvDvLuI2Pq2bM0kV12Kc-2" target="JvDvLuI2Pq2bM0kV12Kc-20">
          <mxGeometry relative="1" as="geometry" />
        </mxCell>
        <mxCell id="JvDvLuI2Pq2bM0kV12Kc-24" value="&amp;lt;&amp;lt; include &amp;gt;&amp;gt;" style="rounded=0;orthogonalLoop=1;jettySize=auto;html=1;entryX=0;entryY=0.5;entryDx=0;entryDy=0;dashed=1;endArrow=open;endFill=0;" edge="1" parent="1" source="JvDvLuI2Pq2bM0kV12Kc-2" target="JvDvLuI2Pq2bM0kV12Kc-22">
          <mxGeometry relative="1" as="geometry" />
        </mxCell>
        <mxCell id="JvDvLuI2Pq2bM0kV12Kc-25" value="&amp;lt;&amp;lt; include &amp;gt;&amp;gt;" style="rounded=0;orthogonalLoop=1;jettySize=auto;html=1;entryX=0;entryY=0.5;entryDx=0;entryDy=0;dashed=1;endArrow=open;endFill=0;" edge="1" parent="1" source="JvDvLuI2Pq2bM0kV12Kc-2" target="JvDvLuI2Pq2bM0kV12Kc-23">
          <mxGeometry relative="1" as="geometry" />
        </mxCell>
        <mxCell id="JvDvLuI2Pq2bM0kV12Kc-2" value="Efetuar Venda" style="ellipse;whiteSpace=wrap;html=1;" vertex="1" parent="1">
          <mxGeometry x="220" y="-55" width="140" height="70" as="geometry" />
        </mxCell>
        <mxCell id="JvDvLuI2Pq2bM0kV12Kc-7" style="rounded=0;orthogonalLoop=1;jettySize=auto;html=1;entryX=0;entryY=0.5;entryDx=0;entryDy=0;endArrow=none;endFill=0;" edge="1" parent="1" source="JvDvLuI2Pq2bM0kV12Kc-4" target="JvDvLuI2Pq2bM0kV12Kc-6">
          <mxGeometry relative="1" as="geometry" />
        </mxCell>
        <mxCell id="JvDvLuI2Pq2bM0kV12Kc-4" value="Ajudante Geral" style="shape=umlActor;verticalLabelPosition=bottom;verticalAlign=top;html=1;" vertex="1" parent="1">
          <mxGeometry x="-40" y="85" width="30" height="60" as="geometry" />
        </mxCell>
        <mxCell id="JvDvLuI2Pq2bM0kV12Kc-6" value="Receber Conta" style="ellipse;whiteSpace=wrap;html=1;" vertex="1" parent="1">
          <mxGeometry x="220" y="80" width="140" height="70" as="geometry" />
        </mxCell>
        <mxCell id="JvDvLuI2Pq2bM0kV12Kc-9" style="edgeStyle=orthogonalEdgeStyle;rounded=0;orthogonalLoop=1;jettySize=auto;html=1;endArrow=block;endFill=0;" edge="1" parent="1" source="JvDvLuI2Pq2bM0kV12Kc-4">
          <mxGeometry relative="1" as="geometry">
            <mxPoint x="-25" y="30" as="targetPoint" />
          </mxGeometry>
        </mxCell>
        <mxCell id="JvDvLuI2Pq2bM0kV12Kc-11" style="rounded=0;orthogonalLoop=1;jettySize=auto;html=1;exitX=0.5;exitY=0.5;exitDx=0;exitDy=0;exitPerimeter=0;entryX=0;entryY=0.3333333333333333;entryDx=0;entryDy=0;entryPerimeter=0;endArrow=block;endFill=0;" edge="1" parent="1" source="JvDvLuI2Pq2bM0kV12Kc-10" target="JvDvLuI2Pq2bM0kV12Kc-1">
          <mxGeometry relative="1" as="geometry">
            <mxPoint x="-30" y="-60" as="targetPoint" />
          </mxGeometry>
        </mxCell>
        <mxCell id="JvDvLuI2Pq2bM0kV12Kc-13" style="rounded=0;orthogonalLoop=1;jettySize=auto;html=1;entryX=0;entryY=0.5;entryDx=0;entryDy=0;endArrow=none;endFill=0;" edge="1" parent="1" source="JvDvLuI2Pq2bM0kV12Kc-10" target="JvDvLuI2Pq2bM0kV12Kc-12">
          <mxGeometry relative="1" as="geometry" />
        </mxCell>
        <mxCell id="JvDvLuI2Pq2bM0kV12Kc-15" style="rounded=0;orthogonalLoop=1;jettySize=auto;html=1;entryX=0;entryY=0.5;entryDx=0;entryDy=0;endArrow=none;endFill=0;" edge="1" parent="1" source="JvDvLuI2Pq2bM0kV12Kc-10" target="JvDvLuI2Pq2bM0kV12Kc-14">
          <mxGeometry relative="1" as="geometry" />
        </mxCell>
        <mxCell id="JvDvLuI2Pq2bM0kV12Kc-10" value="Gerente" style="shape=umlActor;verticalLabelPosition=bottom;verticalAlign=top;html=1;" vertex="1" parent="1">
          <mxGeometry x="-200" y="-60" width="30" height="60" as="geometry" />
        </mxCell>
        <mxCell id="JvDvLuI2Pq2bM0kV12Kc-12" value="Manter Produto" style="ellipse;whiteSpace=wrap;html=1;" vertex="1" parent="1">
          <mxGeometry x="220" y="-190" width="140" height="70" as="geometry" />
        </mxCell>
        <mxCell id="JvDvLuI2Pq2bM0kV12Kc-14" value="Administrar Estoque" style="ellipse;whiteSpace=wrap;html=1;" vertex="1" parent="1">
          <mxGeometry x="220" y="-320" width="140" height="70" as="geometry" />
        </mxCell>
        <mxCell id="JvDvLuI2Pq2bM0kV12Kc-17" style="rounded=0;orthogonalLoop=1;jettySize=auto;html=1;entryX=1;entryY=0.5;entryDx=0;entryDy=0;endArrow=none;endFill=0;" edge="1" parent="1" source="JvDvLuI2Pq2bM0kV12Kc-16" target="JvDvLuI2Pq2bM0kV12Kc-2">
          <mxGeometry relative="1" as="geometry" />
        </mxCell>
        <mxCell id="JvDvLuI2Pq2bM0kV12Kc-18" style="rounded=0;orthogonalLoop=1;jettySize=auto;html=1;entryX=1;entryY=0.5;entryDx=0;entryDy=0;endArrow=none;endFill=0;" edge="1" parent="1" source="JvDvLuI2Pq2bM0kV12Kc-16" target="JvDvLuI2Pq2bM0kV12Kc-6">
          <mxGeometry relative="1" as="geometry" />
        </mxCell>
        <mxCell id="JvDvLuI2Pq2bM0kV12Kc-16" value="Cliente" style="shape=umlActor;verticalLabelPosition=bottom;verticalAlign=top;html=1;" vertex="1" parent="1">
          <mxGeometry x="542" y="11" width="30" height="60" as="geometry" />
        </mxCell>
        <mxCell id="JvDvLuI2Pq2bM0kV12Kc-20" value="Emitir CFe" style="ellipse;whiteSpace=wrap;html=1;" vertex="1" parent="1">
          <mxGeometry x="610" y="-150" width="140" height="70" as="geometry" />
        </mxCell>
        <mxCell id="JvDvLuI2Pq2bM0kV12Kc-22" value="Gerar Conta" style="ellipse;whiteSpace=wrap;html=1;" vertex="1" parent="1">
          <mxGeometry x="610" y="-240" width="140" height="70" as="geometry" />
        </mxCell>
        <mxCell id="JvDvLuI2Pq2bM0kV12Kc-23" value="Baixar Estoque" style="ellipse;whiteSpace=wrap;html=1;" vertex="1" parent="1">
          <mxGeometry x="610" y="-330" width="140" height="70" as="geometry" />
        </mxCell>
        <mxCell id="JvDvLuI2Pq2bM0kV12Kc-28" style="edgeStyle=orthogonalEdgeStyle;rounded=0;orthogonalLoop=1;jettySize=auto;html=1;entryX=1;entryY=0.5;entryDx=0;entryDy=0;endArrow=block;endFill=0;" edge="1" parent="1" source="JvDvLuI2Pq2bM0kV12Kc-26" target="JvDvLuI2Pq2bM0kV12Kc-22">
          <mxGeometry relative="1" as="geometry" />
        </mxCell>
        <mxCell id="JvDvLuI2Pq2bM0kV12Kc-26" value="Gerar Conta Vista" style="ellipse;whiteSpace=wrap;html=1;" vertex="1" parent="1">
          <mxGeometry x="910" y="-330" width="140" height="70" as="geometry" />
        </mxCell>
        <mxCell id="JvDvLuI2Pq2bM0kV12Kc-29" style="edgeStyle=orthogonalEdgeStyle;rounded=0;orthogonalLoop=1;jettySize=auto;html=1;entryX=1;entryY=0.5;entryDx=0;entryDy=0;endArrow=block;endFill=0;" edge="1" parent="1" source="JvDvLuI2Pq2bM0kV12Kc-27" target="JvDvLuI2Pq2bM0kV12Kc-22">
          <mxGeometry relative="1" as="geometry" />
        </mxCell>
        <mxCell id="JvDvLuI2Pq2bM0kV12Kc-27" value="&lt;span style=&quot;color: rgb(0, 0, 0); font-family: Helvetica; font-size: 12px; font-style: normal; font-variant-ligatures: normal; font-variant-caps: normal; font-weight: 400; letter-spacing: normal; orphans: 2; text-align: center; text-indent: 0px; text-transform: none; widows: 2; word-spacing: 0px; -webkit-text-stroke-width: 0px; background-color: rgb(255, 255, 255); text-decoration-thickness: initial; text-decoration-style: initial; text-decoration-color: initial; float: none; display: inline !important;&quot;&gt;Gerar Conta Prazo&lt;/span&gt;" style="ellipse;whiteSpace=wrap;html=1;" vertex="1" parent="1">
          <mxGeometry x="910" y="-149" width="140" height="70" as="geometry" />
        </mxCell>
      </root>
    </mxGraphModel>
  </diagram>
</mxfile>
